<svg xmlns="http://www.w3.org/2000/svg" width="40.798" height="41" viewBox="0 0 40.798 41"><path d="M368.847,70.3a20.312,20.312,0,0,0-31.958,24.513L334,105.341l10.771-2.827a20.3,20.3,0,0,0,9.7,2.477h0A20.321,20.321,0,0,0,368.847,70.3h0Zm-14.364,31.27a16.86,16.86,0,0,1-8.6-2.363l-.619-.369-6.392,1.674,1.7-6.23-.4-.639a16.885,16.885,0,1,1,14.308,7.927Zm9.264-12.657c-.51-.257-3-1.481-3.466-1.651s-.8-.257-1.147.257-1.312,1.651-1.608,1.992-.593.386-1.1.129a13.92,13.92,0,0,1-4.08-2.523,15.492,15.492,0,0,1-2.839-3.515c-.3-.51-.032-.784.226-1.032s.51-.592.76-.889a3.338,3.338,0,0,0,.51-.85.936.936,0,0,0-.041-.889c-.138-.255-1.158-2.754-1.566-3.772s-.831-.85-1.144-.874-.634-.015-.969-.015a1.87,1.87,0,0,0-1.36.634,5.722,5.722,0,0,0-1.771,4.236,9.889,9.889,0,0,0,2.072,5.253c.255.343,3.58,5.469,8.68,7.667,1.21.52,2.155.833,2.89,1.074a7,7,0,0,0,3.2.2c.976-.143,3-1.226,3.429-2.41a4.206,4.206,0,0,0,.3-2.412c-.128-.2-.457-.35-.969-.61h0Z" transform="translate(-333.999 -64.341)" fill="#ceff00" fill-rule="evenodd"/></svg>