<svg xmlns="http://www.w3.org/2000/svg" width="39.851" height="41" viewBox="0 0 39.851 41"><path d="M0,19.568V17.859L13.285,29.476.173,39.752A2.044,2.044,0,0,1,0,38.928V19.568Zm27.357-2a8,8,0,0,1-.334,2.065,5.108,5.108,0,0,1-.827,1.618,3.635,3.635,0,0,1-1.278,1.061,3.7,3.7,0,0,1-1.621.367,2.9,2.9,0,0,1-.711-.083,2.543,2.543,0,0,1-.637-.25,2.226,2.226,0,0,1-.527-.4,2.281,2.281,0,0,1-.23-.274,2.849,2.849,0,0,1-2.232.974,2.665,2.665,0,0,1-.841-.13,2.508,2.508,0,0,1-.731-.4h0a2.632,2.632,0,0,1-.57-.627,3.368,3.368,0,0,1-.4-.841h0a5.234,5.234,0,0,1-.183-2.092h0a7.786,7.786,0,0,1,.487-1.985A5.535,5.535,0,0,1,17.669,15,4.022,4.022,0,0,1,19,13.966a3.707,3.707,0,0,1,1.6-.334,4.78,4.78,0,0,1,1.224.15,3.71,3.71,0,0,1,1.058.464l.544.364a.217.217,0,0,1,.093.2l-.464,4.988a1.1,1.1,0,0,0,.1.741.584.584,0,0,0,.514.2.879.879,0,0,0,.537-.187,1.876,1.876,0,0,0,.484-.631,4.006,4.006,0,0,0,.364-1,6.95,6.95,0,0,0,.157-1.278,8.05,8.05,0,0,0-.217-2.469,4.533,4.533,0,0,0-.921-1.8,3.922,3.922,0,0,0-1.558-1.108,5.846,5.846,0,0,0-2.162-.374,5.368,5.368,0,0,0-1.485.2,4.859,4.859,0,0,0-1.3.6,5.114,5.114,0,0,0-1.108.978,6.19,6.19,0,0,0-.847,1.311,8,8,0,0,0-.564,1.588,9.95,9.95,0,0,0-.247,1.808h0a8.608,8.608,0,0,0,.217,2.569,4.671,4.671,0,0,0,.924,1.858,3.919,3.919,0,0,0,1.588,1.128,6.151,6.151,0,0,0,2.259.384,6.664,6.664,0,0,0,.721-.04c.247-.027.5-.07.761-.123s.494-.11.707-.173a5.035,5.035,0,0,0,.567-.2.213.213,0,0,1,.28.113h0a.18.18,0,0,1,0,.057l.337,1.4a.223.223,0,0,1-.093.227,3.512,3.512,0,0,1-.667.334,5.735,5.735,0,0,1-.824.254,7.951,7.951,0,0,1-.911.163,7.736,7.736,0,0,1-.917.053,8.254,8.254,0,0,1-4.06-.924A5.627,5.627,0,0,1,14.219,24.3a6.054,6.054,0,0,1-1.031-1.6h0a8.008,8.008,0,0,1-.577-1.985,11.825,11.825,0,0,1-.13-2.379,10.89,10.89,0,0,1,.334-2.289,9.333,9.333,0,0,1,.787-2.042,7.715,7.715,0,0,1,1.2-1.675,7.207,7.207,0,0,1,1.581-1.274,7.422,7.422,0,0,1,1.885-.791A8.18,8.18,0,0,1,20.374,10a7.608,7.608,0,0,1,3.837.924,5.85,5.85,0,0,1,1.428,1.134,6.108,6.108,0,0,1,1,1.531,7.447,7.447,0,0,1,.587,1.868,9.548,9.548,0,0,1,.13,2.118Zm-8.574,1a5.1,5.1,0,0,0,0,.931,1.949,1.949,0,0,0,.16.634.8.8,0,0,0,.277.334.747.747,0,0,0,.694.04,1.024,1.024,0,0,0,.29-.224,1.886,1.886,0,0,0,.277-.39,3.408,3.408,0,0,0,.23-.527l.334-3.67h-.057a1.905,1.905,0,0,0-.247,0,1.669,1.669,0,0,0-.751.163,1.5,1.5,0,0,0-.55.48,3.157,3.157,0,0,0-.4.9,7.945,7.945,0,0,0-.244,1.334ZM.05,14.493c.284-1.111,1.858-1.825,2.732-2.445V7.28a2,2,0,0,1,2-2h7.5l7.156-5.1a1.081,1.081,0,0,1,1.248.007l7.033,5.091h7.34a2,2,0,0,1,2,2v4.754c.941.667,2.782,1.575,2.782,2.832v.05L35.067,18.95V7.274H4.784V18.617Zm39.8,3.773V38.928a2.042,2.042,0,0,1-.474,1.311L26.136,29.826Zm-3.67,22.72H2.756L15.25,31.194l3.72,3.253a1.278,1.278,0,0,0,1.718-.03l3.443-2.9,12.04,9.468Z" transform="translate(0 0.014)" fill="#ceff00"/></svg>