<?xml version="1.0" encoding="utf-8"?>
<!-- Generator: Adobe Illustrator 26.2.1, SVG Export Plug-In . SVG Version: 6.00 Build 0)  -->
<svg version="1.1" id="Layer_1" xmlns="http://www.w3.org/2000/svg" xmlns:xlink="http://www.w3.org/1999/xlink" x="0px" y="0px"
	 viewBox="0 0 50 50" style="enable-background:new 0 0 50 50;" xml:space="preserve">
<style type="text/css">
	.st0{fill:#676B7E;}
</style>
<path class="st0" d="M32.4,37.5c-0.5,0-0.9-0.4-0.9-0.9c0-0.5,0.4-0.9,0.9-0.9h1.6v-6.4h-1.6c-0.5,0-0.8-0.4-0.8-0.9
	c0-0.4,0.4-0.8,0.8-0.8h1.6v-9.1h-6.7v9H29c0.5,0,0.8,0.4,0.8,0.9c0,0.4-0.4,0.8-0.8,0.8h-1.6v1.8c0,0.5-0.4,0.8-0.9,0.8
	c-0.4,0-0.8-0.4-0.8-0.8V18.5H14.2v6.1h5.6c0.5,0,0.9,0.4,0.9,0.9l0,0v10.3h4.9v-1.6c0-0.5,0.3-0.9,0.8-0.9c0.5,0,0.9,0.3,0.9,0.8
	c0,0,0,0.1,0,0.1v1.6h2c0.5,0,0.9,0.4,0.9,0.9c0,0.5-0.4,0.9-0.9,0.9h-16c-0.5,0-0.9-0.4-0.9-0.9V17.7c0-0.5,0.4-0.9,0.9-0.9l0,0
	h21.6c0.5,0,0.9,0.4,0.9,0.9c0,0,0,0,0,0v18.9c0,0.5-0.4,0.9-0.9,0.9H32.4z M50,17.4v25.9h-7V17.4h0l0.2-0.5l2.9-6l0.3-0.6l0.3,0.6
	l3.1,6L50,17.4L50,17.4z M44,16.7h4.9L46.9,13h-1.1L44,16.7L44,16.7z M40.8,42.8v0.7l0,0c0,0.2,0,0.3,0.1,0.5H5.7
	c-0.9,0-1.7-0.3-2.4-0.7c-0.8-0.4-1.5-1-2-1.7c-0.4-0.6-0.7-1.3-0.9-2.1c-0.2-0.8-0.2-1.6-0.2-2.5c0-7.3-0.3-15.4,0-22.6
	c0-2,0-4,0.7-5.6S2.9,6.1,5.7,6h0.1C6,6,6.2,6.1,6.4,6.3c0.2,0.2,0.2,0.4,0.2,0.6v4h37.1l-0.2,0.5l0,0l0,0.1l-0.1,0.1l0,0.1l0,0.1
	l0,0.1L43.2,12v0l-0.3,0.5H6.7v20.9c0,0.2-0.1,0.4-0.2,0.5c-0.1,0.2-0.3,0.3-0.5,0.3h0c-0.5,0.1-0.9,0.2-1.4,0.3
	c-0.4,0.1-0.8,0.3-1.2,0.5c-0.3,0.2-0.6,0.5-0.9,0.8c-0.3,0.4-0.5,0.8-0.7,1.3c0,0.6,0,1.3,0.1,1.9c0.1,0.5,0.3,1,0.6,1.5l0,0
	c0.3,0.4,0.7,0.8,1.2,1.1l0,0c0.6,0.3,1.3,0.5,1.9,0.6h35L40.8,42.8L40.8,42.8z M1.8,34.2L1.8,34.2c0.3-0.2,0.5-0.4,0.7-0.5
	c0.4-0.3,0.8-0.5,1.3-0.6c0.4-0.1,0.8-0.2,1.2-0.3v-25c-3.2,0.5-3.1,3.7-3.1,6.6c0,0.3,0,0.5,0,0.8L1.8,34.2L1.8,34.2z M14.2,26.4
	v9.4h4.7v-9.4H14.2z"/>
</svg>
