<?xml version="1.0" encoding="utf-8"?>
<!-- Generator: Adobe Illustrator 26.2.1, SVG Export Plug-In . SVG Version: 6.00 Build 0)  -->
<svg version="1.1" id="Layer_1" xmlns="http://www.w3.org/2000/svg" xmlns:xlink="http://www.w3.org/1999/xlink" x="0px" y="0px"
	 viewBox="0 0 50 50" style="enable-background:new 0 0 50 50;" xml:space="preserve">
<style type="text/css">
	.st0{fill-rule:evenodd;clip-rule:evenodd;fill:#676B7E;}
</style>
<g>
	<path class="st0" d="M29.5,7.2c-1.2-0.5-2.5-0.7-3.8-0.7c-2,0-3.6,0.6-4.8,1.9L10,19.3l1.1,1.1L7,24.6l-7-7l4.1-4.1l1.3,1.3
		L16.3,3.9c1.5-1.5,3.1-2.2,4.8-2.2C23.9,1.7,26.7,3.5,29.5,7.2L29.5,7.2z M50,42l-6.3,6.3C33.5,37.7,24.4,28.2,14.3,17.6l5-5
		C29.8,22.7,39.4,31.8,50,42L50,42z"/>
</g>
</svg>
