<?xml version="1.0" encoding="utf-8"?>
<!-- Generator: Adobe Illustrator 26.2.1, SVG Export Plug-In . SVG Version: 6.00 Build 0)  -->
<svg version="1.1" id="Layer_1" xmlns="http://www.w3.org/2000/svg" xmlns:xlink="http://www.w3.org/1999/xlink" x="0px" y="0px"
	 viewBox="0 0 50 50" style="enable-background:new 0 0 50 50;" xml:space="preserve">
<style type="text/css">
	.st0{fill:#676B7E;}
</style>
<path class="st0" d="M16.2,32.4c-1.3,0.3-2.7,0.3-4.1-1.1c-0.9-1-1.4-2.4-1.3-3.8c3.5,4,7.7-0.9,2.6-3.5c2.5-1.2,4.8-0.1,6,2.2
	c0.6,1.1,0.9,1.6,1.4,2c0.1,0.1,0.2,0.1,0.3,0.2c0.2-0.5,0.6-1,1.1-1.3c0.3-0.1,0.6-0.2,0.9-0.2c0.9,0,2,0.5,2.2,1.5l0,0
	c0,0,0.1,0,0.1,0H26c0,0,0.1,0,0.1,0c0.7,0.1,1.3,0.6,1.4,1.3c0.1,0,0.1,0,0.2,0h0.7c0,0,0.1,0,0.1,0c0.8,0.1,1.4,0.7,1.5,1.5h0.7
	c0,0,0.1,0,0.1,0c1.1,0.2,1.5,0.9,1.7,1.7c2-0.3,4.1-1.5,6.2,0.7c0.9,1,1.4,2.4,1.3,3.8c-3.5-4-7.7,0.9-2.6,3.5
	c-2.1,1-4.1,0.3-5.4-1.3c-0.2,0.5-0.4,1-0.7,1.4L31.2,41c0.3,0.1,0.5,0.4,0.5,0.7v3.9c0,0.4-0.3,0.7-0.7,0.7H20.8
	c-0.4,0-0.7-0.3-0.7-0.7v-3.9c0-0.4,0.3-0.7,0.7-0.7l0,0l-3.6-5.8l0,0c-0.3-0.4-0.5-0.8-0.7-1.2c-0.2-0.4-0.3-0.8-0.3-1.1
	C16.2,32.7,16.2,32.5,16.2,32.4L16.2,32.4z M45.7,45.3c0,0.4-0.3,0.7-0.7,0.7h-9.3v-2.1h7.9V25c0,0,0-0.1,0-0.1L25.1,11.3L6.2,24.9
	c0,0.1,0,0.1,0,0.2v18.8h9.4v2.1H4.8c-0.4,0-0.7-0.3-0.7-0.7c0,0,0,0,0,0V25.9c-0.7,0.3-1.5,0.3-2.3,0.1c-0.5-0.2-0.9-0.5-1.2-0.9
	c-0.3-0.4-0.5-0.9-0.6-1.4c-0.1-1,0.2-1.9,0.9-2.6l0,0c0,0,0.1-0.1,0.1-0.1L24.4,4c0.3-0.2,0.7-0.3,1,0l23.5,17l0,0
	c0,0,0.1,0.1,0.1,0.1c0.8,0.8,1.2,2,1,3.1c-0.2,0.9-0.9,1.7-1.8,2c-0.8,0.3-1.7,0.2-2.4-0.2L45.7,45.3L45.7,45.3z M20.8,34
	C20.8,34,20.7,34,20.8,34l-1-0.8c-0.4-0.3-0.9-0.7-1.2-1c-0.2-0.2-0.5-0.3-0.7-0.4c-0.1,0-0.3,0-0.4,0c-0.1,0-0.2,0.1-0.2,0.2
	c-0.1,0.2-0.1,0.4-0.1,0.7c0,0.3,0.1,0.6,0.2,0.8c0.2,0.4,0.4,0.7,0.6,1c0,0,0,0,0,0l3.6,5.4c0,0.1,0.1,0.1,0.1,0.2l0,0
	c0,0.3,0.1,0.5,0.1,0.8h8c0.1-0.2,0.2-0.3,0.3-0.5v0l0.4-0.6c0.6-0.9,1-2,1.1-3.2l0-1.6c0,0,0,0,0-0.1c0,0,0-0.2,0-0.4
	c0-1.1,0-2.4-0.9-2.6H30c0,0.3,0,0.6,0,0.9c0,0.3,0,0.5,0,0.8c0,0.3-0.2,0.5-0.5,0.5c-0.3,0-0.5-0.2-0.5-0.5c0,0,0,0,0,0
	c0-0.2,0-0.5,0-0.8c0.1-1,0.1-2.2-0.7-2.3h-0.6c0,0-0.1,0-0.1,0c0,0.4,0,0.7,0,1.1c0,0.3,0,0.5,0,0.8c0,0.3-0.2,0.5-0.5,0.5
	c-0.3,0-0.5-0.2-0.5-0.5c0-0.2,0-0.5,0-0.8c0.1-1,0.1-2.2-0.7-2.3h-0.6c0,0-0.1,0-0.1,0v1.8c0,0.3-0.2,0.5-0.5,0.5
	c-0.3,0-0.5-0.2-0.5-0.5v-2.3c0-0.7-0.7-0.9-1.3-0.9c-0.2,0-0.3,0-0.5,0.1c-0.4,0.2-0.8,0.8-0.8,1.7v5.2c0,0.3-0.2,0.5-0.5,0.5
	s-0.5-0.2-0.5-0.5L20.8,34L20.8,34z M20.8,32.3l-0.4-0.2c-0.2-0.1-0.4-0.2-0.6-0.2l0.7,0.6l0.4,0.3L20.8,32.3L20.8,32.3z"/>
</svg>
