<?xml version="1.0" encoding="utf-8"?>
<!-- Generator: Adobe Illustrator 26.2.1, SVG Export Plug-In . SVG Version: 6.00 Build 0)  -->
<svg version="1.1"
	 id="Ebene_1" text-rendering="geometricPrecision" image-rendering="optimizeQuality" shape-rendering="geometricPrecision"
	 xmlns="http://www.w3.org/2000/svg" xmlns:xlink="http://www.w3.org/1999/xlink" x="0px" y="0px" viewBox="0 0 50 50"
	 style="enable-background:new 0 0 50 50;" xml:space="preserve">
<style type="text/css">
	.st0{fill:#676B7E;}
</style>
<path class="st0" d="M14.7,16.7c0.2-0.5,0.5-0.8,0.9-1c0.5-0.2,0.9-0.2,1.4,0l2.6,1c0.7-1.1,1.5-2,2.5-2.9l-1.3-2.7
	c-0.2-0.5-0.2-0.9-0.1-1.4c0.2-0.5,0.5-0.8,1-1L25.2,7c0.4-0.2,0.9-0.2,1.4-0.1c0.5,0.2,0.8,0.5,1,0.9l1.2,2.5
	c1.2-0.2,2.5-0.3,3.8-0.2l1.1-2.9c0.2-0.5,0.5-0.8,0.9-1c0.5-0.2,0.9-0.2,1.4,0l3.5,1.3c0.5,0.2,0.8,0.5,1,0.9
	c0.2,0.5,0.2,0.9,0,1.4l-1,2.6c1.1,0.7,2,1.5,2.9,2.5l2.7-1.3c0.5-0.2,0.9-0.2,1.4-0.1c0.5,0.2,0.8,0.5,1,1l1.6,3.4
	c0.2,0.4,0.2,0.9,0.1,1.4c-0.2,0.5-0.5,0.8-0.9,1l-2.5,1.2c0.3,1.3,0.3,2.5,0.3,3.8l2.8,1.1c0.5,0.2,0.8,0.5,1,0.9
	c0.2,0.5,0.2,0.9,0,1.4l-1.3,3.5c-0.2,0.5-0.5,0.8-1,1c-0.5,0.2-0.9,0.2-1.4,0.1l-2.6-1c-0.7,1.1-1.5,2-2.5,2.9l1.3,2.7
	c0.2,0.5,0.2,0.9,0.1,1.4c-0.2,0.5-0.5,0.8-1,1l-3.4,1.6c-0.4,0.2-0.9,0.2-1.4,0.1c-0.5-0.2-0.8-0.5-1-0.9l-1.1-2.5
	c-1.3,0.3-2.5,0.3-3.8,0.3l-1.1,2.8c-0.2,0.5-0.5,0.8-0.9,1c-0.5,0.2-0.9,0.2-1.4,0l-3.5-1.3c-0.5-0.2-0.8-0.5-1-1
	c-0.2-0.5-0.2-0.9-0.1-1.4l1-2.6c-0.3-0.2-0.7-0.5-1-0.7l2.6-1.3c0.6-0.3,1.1-0.3,1.6-0.3c0.3,0.2,0.6,0.3,1,0.4
	c1.3,0.5,2.6,0.7,4.1,0.7c4.3-0.1,8.3-3,9.8-7c1-2.7,0.9-5.6-0.3-8.3c-1.8-4-5.7-6.4-10.1-6.3c-2.9,0.1-5.7,1.4-7.6,3.5
	c-1.2,1.4-2.1,3-2.5,4.7c-0.4,0.7-0.7,1.2-1.1,1.3l0,0l-2.8,1.4c0-0.3,0-0.7,0-1l-2.9-1.1c-0.5-0.2-0.8-0.5-1-0.9
	c-0.2-0.5-0.2-0.9,0-1.4L14.7,16.7L14.7,16.7z M7.5,43.9c-2.1,0.1-4.2-0.8-5.9-2.3c8.4,0,6.8-10.2-1.6-6.8c1.2-4.2,4.9-5.9,8.9-5
	c2.1,0.5,3.4,0.8,5.4-0.1l7.2-3.5c3.8-1.8,3.1-8.6,9.5-9c2.1-0.1,4.2,0.8,5.9,2.3c-8.4,0-6.8,10.2,1.6,6.8c-1.2,4.2-4.9,5.9-8.9,5
	c-1.8-0.4-3.1-1.2-5.7,0.1l-6.8,3.4c-1.3,0.7-1.8,1.2-2.5,2.5C12.7,40.5,11.8,43.7,7.5,43.9L7.5,43.9z"/>
</svg>
