<?xml version="1.0" encoding="UTF-8"?>
<svg width="1456px" height="1117px" viewBox="0 0 1456 1117" version="1.1" xmlns="http://www.w3.org/2000/svg" xmlns:xlink="http://www.w3.org/1999/xlink">
    <title>ipad-shape</title>
    <g id="Devices" stroke="none" stroke-width="1" fill="none" fill-rule="evenodd">
        <g id="iphone-12-shape-svg-exports" transform="translate(-431.000000, -227.000000)" fill="#0E0E0E">
            <path d="M513.044326,227 L1804.95567,227 C1833.48427,227 1843.82943,229.97042 1854.25906,235.548247 C1864.68869,241.126073 1872.87393,249.311308 1878.45175,259.740937 C1884.02958,270.170567 1887,280.515727 1887,309.044326 L1887,1261.95567 C1887,1290.48427 1884.02958,1300.82943 1878.45175,1311.25906 C1872.87393,1321.68869 1864.68869,1329.87393 1854.25906,1335.45175 C1843.82943,1341.02958 1833.48427,1344 1804.95567,1344 L513.044326,1344 C484.515727,1344 474.170567,1341.02958 463.740937,1335.45175 C453.311308,1329.87393 445.126073,1321.68869 439.548247,1311.25906 C433.97042,1300.82943 431,1290.48427 431,1261.95567 L431,309.044326 C431,280.515727 433.97042,270.170567 439.548247,259.740937 C445.126073,249.311308 453.311308,241.126073 463.740937,235.548247 C474.170567,229.97042 484.515727,227 513.044326,227 Z" id="ipad-shape"></path>
        </g>
    </g>
</svg>