<svg id="Layer_1" data-name="Layer 1" xmlns="http://www.w3.org/2000/svg" viewBox="0 0 96.11 122.88"><defs><style>.cls-1{fill:#fff;fill-rule:evenodd;}</style></defs><path class="cls-1" d="M111.89,99h9V80.12a37,37,0,0,1,10.9-26.21h0a37,37,0,0,1,52.42,0h0a37,37,0,0,1,10.9,26.21V99h7.14a2.9,2.9,0,0,1,2.89,2.89V163a2.9,2.9,0,0,1-2.89,2.89H111.89A2.9,2.9,0,0,1,109,163V101.93A2.9,2.9,0,0,1,111.89,99Zm23.38,0h45.39V79.91a22.68,22.68,0,0,0-6.66-16h0a22.69,22.69,0,0,0-38.72,16V99Zm22.88,33.41,4.58,21.14-12.56,0,3.69-21.42a8.51,8.51,0,1,1,4.29.23Z" transform="translate(-109 -43)"/></svg>