<svg xmlns="http://www.w3.org/2000/svg" width="83.45" height="80.725" viewBox="0 0 83.45 80.725"><g transform="translate(-319.126 -125.419)"><path d="M367.2,167.145v-.277a42.139,42.139,0,0,0,9.161-7.786,18.558,18.558,0,0,0,4.845-13.107A17.835,17.835,0,0,0,378,135.362a20,20,0,0,0-8.7-6.844,33.058,33.058,0,0,0-8.863-2.383,136.4,136.4,0,0,0-24.094-.333l.15,62.785h8.895l.051-55.519q.5,0,1.552-.028t3.051-.028q2.994,0,6.544.25a23.629,23.629,0,0,1,6.766,1.471,12.92,12.92,0,0,1,6.183,4.523,12.134,12.134,0,0,1,2.247,7.355,15.457,15.457,0,0,1-1.526,7.438,18.115,18.115,0,0,1-3.578,4.661,28.9,28.9,0,0,1-5.882,4.025,28.231,28.231,0,0,1-5.6,2.414l-.055.5q18.147,20.248,36.3,40.495h11.143Q384.89,186.646,367.2,167.145Z" fill="#ceff00"/><path d="M328.937,197.651q.06-36.084.121-72.167h-9.932v80.473h63.953l-7.553-8.389Z" fill="#ceff00"/></g></svg>